<?xml version="1.0" encoding="UTF-8" standalone="no"?>
<!-- (c) ammap.com | SVG weather icons -->

<svg
   version="1.1"
   width="64"
   height="64"
   viewbox="0 0 64 64"
   id="svg40"
   xmlns="http://www.w3.org/2000/svg"
   xmlns:svg="http://www.w3.org/2000/svg">
  <g
     id="cloudy-night-3">
    <g
       transform="translate(20,10)"
       id="g37">
      <g
         transform="translate(16,4), scale(0.8)"
         id="g31">
        <g
           class="am-weather-moon-star-1"
           id="g21">
          <polygon
             fill="orange"
             points="3.3,1.5 4,2.7 5.2,3.3 4,4 3.3,5.2 2.7,4 1.5,3.3 2.7,2.7"
             stroke="none"
             stroke-miterlimit="10"
             id="polygon19" />
        </g>
        <g
           class="am-weather-moon-star-2"
           id="g25">
          <polygon
             fill="orange"
             points="3.3,1.5 4,2.7 5.2,3.3 4,4 3.3,5.2 2.7,4 1.5,3.3 2.7,2.7"
             stroke="none"
             stroke-miterlimit="10"
             transform="translate(20,10)"
             id="polygon23" />
        </g>
        <g
           class="am-weather-moon"
           id="g29">
          <path
             d="M14.5,13.2c0-3.7,2-6.9,5-8.7   c-1.5-0.9-3.2-1.3-5-1.3c-5.5,0-10,4.5-10,10s4.5,10,10,10c1.8,0,3.5-0.5,5-1.3C16.5,20.2,14.5,16.9,14.5,13.2z"
             fill="orange"
             stroke="orange"
             stroke-linejoin="round"
             stroke-width="2"
             id="path27" />
        </g>
      </g>
      <g
         class="am-weather-cloud-2"
         id="g35">
        <path
           d="M47.7,35.4    c0-4.6-3.7-8.2-8.2-8.2c-1,0-1.9,0.2-2.8,0.5c-0.3-3.4-3.1-6.2-6.6-6.2c-3.7,0-6.7,3-6.7,6.7c0,0.8,0.2,1.6,0.4,2.3    c-0.3-0.1-0.7-0.1-1-0.1c-3.7,0-6.7,3-6.7,6.7c0,3.6,2.9,6.6,6.5,6.7l17.2,0C44.2,43.3,47.7,39.8,47.7,35.4z"
           fill="#57A0EE"
           stroke="#FFFFFF"
           stroke-linejoin="round"
           stroke-width="1.2"
           transform="translate(-20,-11)"
           id="path33" />
      </g>
    </g>
  </g>
</svg>
